<svg width="153" height="32" viewBox="0 0 153 32" xmlns="http://www.w3.org/2000/svg" xmlns:xlink="http://www.w3.org/1999/xlink"><title>ktbs</title><defs><path d="M13.303 19.177c.113-.036.208-.075.306-.097 1.695-.39 3.463.702 3.924 2.42.037.138.063.28.101.417.45 1.64 1.965 2.674 3.645 2.49 1.61-.175 2.874-1.493 3-3.131a3.427 3.427 0 0 0-2.433-3.528c-.705-.206-1.398-.165-2.093.064-1.562.514-3.207-.288-3.917-1.59-.113-.207-.109-.37.005-.574.668-1.199 2.094-1.897 3.448-1.663.266.046.526.124.789.19a3.42 3.42 0 0 0 3.616-1.362c.78-1.125.621-3.025-.07-3.977-1.213-1.668-3.654-1.57-4.725-.722-.714.564-1.137 1.285-1.347 2.167-.318 1.34-1.186 2.16-2.486 2.516-.581.159-1.17.145-1.775-.097.012-.21.01-.417.037-.62.113-.833.5-1.513 1.114-2.083.927-.861 1.277-1.941 1.051-3.184-.3-1.66-1.81-2.864-3.57-2.75-1.923.126-3.419 2-3.094 3.915.143.841.533 1.53 1.165 2.1.778.704 1.107 1.598 1.044 2.637-1.385.605-2.19 1.626-2.232 3.127-.046 1.611.788 2.693 2.239 3.345.047 1.046-.285 1.94-1.067 2.644-.631.57-1.043 1.262-1.147 2.11-.122.996.044 1.918.831 2.635.192.174.355.38.553.546.195.164.401.334.631.435 1.461.646 3.179.15 4.095-1.163a3.427 3.427 0 0 0-.308-4.31c-.142-.151-.301-.286-.442-.439-.638-.691-.925-1.511-.888-2.468zm18.43-3.103c.05 8.355-6.684 15.928-15.835 15.926C6.828 31.998-.01 24.628 0 15.994.01 7.13 7.146-.038 15.91 0 24.85.04 31.81 7.395 31.733 16.074z" id="a"/><ellipse id="b" cx="15.632" cy="16.55" rx="14.529" ry="14.69"/></defs><g fill="none" fill-rule="evenodd"><g fill="#FFF"><use xlink:href="#a"/><use xlink:href="#b"/></g><path d="M11.89 17.994v.402c0 .911-.006 1.823.003 2.734.002.244-.051.454-.175.663-.363.615-.728 1.23-1.062 1.861a1.54 1.54 0 0 0 .617 2.059 1.518 1.518 0 0 0 2.04-.529c.324-.534.32-1.087.016-1.631-.336-.6-.68-1.198-1.027-1.792a1.108 1.108 0 0 1-.163-.589c.007-.95.002-1.9.004-2.851 0-.114.015-.228.02-.314.32-.123.628-.196.887-.352.27-.163.494-.405.754-.626.038.018.098.041.153.072 1.359.749 2.716 1.501 4.077 2.246a.85.85 0 0 1 .355.393c.334.661.66 1.327 1.018 1.974a1.507 1.507 0 0 0 1.832.704c.693-.237 1.12-.946 1.02-1.693a1.535 1.535 0 0 0-1.462-1.32 84.133 84.133 0 0 0-1.972-.087 1.313 1.313 0 0 1-.624-.173c-1.344-.749-2.692-1.492-4.037-2.238-.088-.048-.169-.109-.266-.172.232-.582.217-1.155.005-1.732.076-.052.136-.099.202-.136 1.391-.771 2.78-1.544 4.177-2.306.14-.076.315-.108.477-.117.683-.041 1.367-.057 2.05-.1a1.54 1.54 0 0 0 1.458-1.413c.057-.794-.424-1.461-1.188-1.647-.68-.165-1.358.153-1.718.825-.324.607-.639 1.22-.942 1.838-.108.22-.251.375-.467.493-1.304.714-2.603 1.438-3.904 2.159-.088.048-.181.086-.301.143-.382-.565-.926-.86-1.605-.963v-.41c0-.664.04-1.332-.01-1.992a3.106 3.106 0 0 1 .562-2.087c.27-.393.503-.82.711-1.252a1.538 1.538 0 0 0-.84-2.094 1.52 1.52 0 0 0-2.012.994 1.52 1.52 0 0 0 .144 1.242c.349.608.693 1.22 1.047 1.825.102.174.15.35.148.553-.007.963-.002 1.926-.004 2.89 0 .102-.01.204-.014.276-.344.145-.676.254-.977.42-.323.176-.552.465-.717.8-.157.32-.233.66-.219 1.018.038.999.62 1.624 1.928 2.032m1.254 1.111c-.036.957.25 1.777.889 2.47.14.152.3.287.441.438a3.43 3.43 0 0 1 .309 4.313c-.917 1.314-2.634 1.81-4.095 1.163-.23-.101-.436-.27-.632-.435-.197-.166-.36-.372-.552-.547-.788-.717-.953-1.639-.831-2.637.103-.847.515-1.54 1.146-2.11.783-.705 1.115-1.599 1.067-2.645-1.45-.653-2.284-1.735-2.239-3.347.043-1.502.847-2.523 2.233-3.128.062-1.04-.266-1.935-1.045-2.638A3.55 3.55 0 0 1 8.67 7.9c-.324-1.916 1.172-3.79 3.095-3.916 1.758-.114 3.269 1.09 3.57 2.75.226 1.244-.125 2.325-1.051 3.186-.614.57-1.001 1.25-1.114 2.084-.028.203-.026.41-.037.62a2.712 2.712 0 0 0 1.774.098c1.3-.357 2.169-1.177 2.487-2.518.209-.882.633-1.604 1.346-2.168 1.071-.848 3.513-.946 4.725.723.692.952.85 2.853.07 3.978a3.42 3.42 0 0 1-3.616 1.363c-.262-.066-.523-.144-.789-.19-1.354-.234-2.78.465-3.447 1.664-.114.205-.118.367-.005.575.71 1.302 2.355 2.105 3.917 1.59.695-.23 1.388-.27 2.093-.064 1.525.445 2.556 1.94 2.433 3.53-.127 1.638-1.39 2.957-3 3.133-1.68.183-3.196-.851-3.646-2.492-.037-.138-.063-.279-.1-.417-.461-1.72-2.23-2.81-3.924-2.421-.099.022-.193.06-.307.097" fill="#1996C2"/><path d="M11.89 17.994c-1.309-.408-1.891-1.033-1.929-2.032a2.095 2.095 0 0 1 .22-1.019c.164-.334.393-.623.716-.8.301-.165.633-.274.977-.42.003-.07.014-.173.014-.275.002-.964-.003-1.927.004-2.89a1.036 1.036 0 0 0-.148-.553c-.354-.606-.698-1.217-1.047-1.825a1.52 1.52 0 0 1-.144-1.242 1.52 1.52 0 0 1 2.012-.994c.83.32 1.23 1.284.84 2.094-.208.432-.44.859-.711 1.252a3.106 3.106 0 0 0-.563 2.087c.051.66.011 1.328.011 1.992v.41c.679.104 1.223.398 1.605.963.12-.057.213-.095.301-.143 1.301-.72 2.6-1.445 3.904-2.16.216-.117.359-.272.467-.492.303-.618.618-1.231.942-1.838.36-.672 1.038-.99 1.718-.825.764.186 1.245.853 1.188 1.647a1.54 1.54 0 0 1-1.458 1.413c-.683.043-1.367.059-2.05.1-.162.01-.337.04-.477.117-1.396.762-2.786 1.535-4.177 2.306-.066.037-.126.084-.202.136.212.577.227 1.15-.005 1.732.097.063.178.124.266.172 1.345.746 2.693 1.49 4.037 2.238.197.11.396.166.624.173.657.019 1.315.052 1.972.087.758.04 1.364.59 1.462 1.32.1.747-.327 1.456-1.02 1.693a1.507 1.507 0 0 1-1.832-.704c-.357-.647-.684-1.313-1.018-1.974a.85.85 0 0 0-.355-.393c-1.361-.745-2.718-1.497-4.077-2.246-.055-.03-.115-.054-.153-.072-.26.22-.483.463-.754.626-.259.156-.567.23-.886.352-.006.086-.02.2-.021.314-.002.95.003 1.9-.004 2.851-.002.218.055.404.163.59.348.593.69 1.19 1.027 1.79.304.545.308 1.098-.016 1.632-.425.7-1.33.926-2.04.529a1.54 1.54 0 0 1-.617-2.059c.334-.631.699-1.246 1.062-1.86.124-.21.177-.42.175-.664-.01-.911-.004-1.823-.004-2.734v-.402z" fill="#FFF"/><g fill="#FFF"><path d="M43.783 17.21c-.206.218-.397.417-.586.618-.304.325-.6.657-.913.972a.699.699 0 0 0-.209.54c.007 1.537.004 3.074.004 4.61v.468h-3.024V7.74h3.01c.005.379.011.763.014 1.148.002.377 0 .755 0 1.133V14.66l.075.037c.092-.095.186-.187.274-.284 1.94-2.131 3.883-4.261 5.815-6.4.196-.217.392-.31.688-.304 1.065.016 2.129.006 3.193.006h.361c.021.039.03.05.032.06a.053.053 0 0 1-.007.036c-.02.032-.04.065-.065.092l-6.626 7.105c-.008.01-.01.023-.037.09l7.507 9.29c-.114.024-.18.05-.248.05-1.09.004-2.18-.004-3.27.008-.231.003-.345-.114-.466-.269-1.522-1.932-3.048-3.863-4.572-5.794-.235-.298-.47-.598-.707-.895-.07-.087-.147-.169-.243-.278M84.923 14.31v3.558c0 .919-.007 1.838.003 2.757.007.716.3 1.11 1.001 1.287.368.093.757.14 1.138.149 1.52.033 2.302-.587 2.616-2.051.223-1.045.224-2.101.128-3.157a3.885 3.885 0 0 0-.423-1.482c-.32-.606-.815-1.007-1.49-1.153-.98-.212-1.956-.107-2.973.092zM81.88 7.17h3.042v4.736c.546-.055 1.04-.113 1.535-.153a7.52 7.52 0 0 1 2.517.21c1.836.478 3.048 1.629 3.586 3.406.584 1.933.561 3.886-.105 5.797-.687 1.97-2.136 3.09-4.223 3.395-1.276.187-2.537.09-3.743-.383-1.387-.544-2.267-1.527-2.541-2.987a4.93 4.93 0 0 1-.065-.903c-.004-4.244-.003-8.488-.003-12.733V7.17zM76.72 18.527c-.078-.022-.149-.052-.222-.063-.79-.111-1.584-.167-2.376-.08-.415.045-.83.154-1.225.29-.403.137-.691.43-.822.842-.317 1 .238 2.033 1.26 2.334.691.203 1.392.198 2.088.025.75-.187 1.221-.66 1.286-1.419.053-.635.01-1.278.01-1.929m-.03-1.946c.033-1.337-.736-2.187-2.072-2.307a10.036 10.036 0 0 0-3.871.419l-.399.121c-.08-.29-.096-1.922-.027-2.385a8.004 8.004 0 0 1 1.865-.525c1.273-.213 2.547-.26 3.819.02 2.125.467 3.515 1.876 3.728 4.234.1 1.112.06 2.238.069 3.358.004.477.004.958-.048 1.432-.15 1.35-.858 2.346-2.064 3-.695.376-1.45.562-2.236.639-1.144.112-2.28.073-3.387-.265-1.317-.403-2.32-1.166-2.818-2.47a3.906 3.906 0 0 1-.172-2.338c.25-1.053.874-1.833 1.836-2.353.765-.414 1.599-.599 2.46-.685a12.5 12.5 0 0 1 2.8.058c.162.02.326.03.518.047M118.543 18.523c-.08-.022-.14-.046-.201-.055-.788-.116-1.582-.17-2.374-.085a5.98 5.98 0 0 0-1.226.285 1.277 1.277 0 0 0-.805.762c-.362.914.13 2.034 1.067 2.365.82.29 1.661.285 2.486.002.627-.215.997-.677 1.043-1.32.046-.637.01-1.28.01-1.954m-6.417-3.699v-2.347c.03-.028.054-.064.086-.075 1.924-.697 3.89-.914 5.89-.405 1.99.506 3.09 1.835 3.422 3.799.067.395.089.801.093 1.203.012 1.134.008 2.267.004 3.401-.006 1.8-.965 3.162-2.677 3.807-1.177.444-2.401.493-3.639.388a6.468 6.468 0 0 1-1.865-.43c-2.306-.923-2.902-3.023-2.52-4.679.254-1.103.94-1.882 1.953-2.393.73-.368 1.516-.536 2.325-.617.936-.095 1.87-.057 2.802.058.163.02.327.03.489.045.157-.778-.296-1.64-1.048-2.024-.528-.27-1.101-.328-1.682-.322-1.16.011-2.301.146-3.402.532-.057.02-.119.03-.231.06M100.709 20.975c.169.092.28.15.389.211a6.563 6.563 0 0 0 4.147.8c.114-.014.227-.04.338-.069.407-.107.735-.292.808-.751.079-.494-.036-.914-.495-1.17a6.144 6.144 0 0 0-.98-.429c-.555-.192-1.13-.331-1.68-.532a8.725 8.725 0 0 1-1.327-.591c-.968-.55-1.48-1.391-1.554-2.496-.12-1.803.76-3.216 2.49-3.83 1.915-.68 3.78-.472 5.57.457.034.018.06.048.1.082v2.23c-.139-.052-.252-.097-.366-.138-1.219-.435-2.466-.561-3.743-.327a1.818 1.818 0 0 0-.539.192c-.597.33-.647 1.037-.092 1.427.216.15.468.264.72.35.508.17 1.032.296 1.54.47.47.16.945.325 1.388.548 1.287.648 1.932 1.717 2.03 3.12.043.622.001 1.232-.27 1.81-.38.816-1.013 1.378-1.823 1.766a5.43 5.43 0 0 1-1.92.505c-1.554.126-3.039-.131-4.435-.83-.101-.05-.197-.112-.296-.17v-2.635zM61.621 14.51h-2.106v-2.572h2.098c.016-.646.006-1.257.008-1.868.002-.602 0-1.204 0-1.825h3.047c.01 1.216-.002 2.429.007 3.679h2.987c.046.87.017 1.703.022 2.573h-2.981c-.013.142-.03.25-.03.359-.002 1.926-.003 3.853.002 5.78 0 .2.025.402.06.6.075.415.332.67.752.759.6.126 1.197.097 1.788-.059.121-.032.243-.062.39-.099v2.423c-.37.194-.784.272-1.2.328-.744.1-1.486.08-2.209-.138-1.395-.42-2.208-1.372-2.501-2.75a6.931 6.931 0 0 1-.128-1.388c-.014-1.775-.006-3.55-.006-5.326v-.476zM95.155 11.956h3.01v12.482c-1.009.006-1.999.003-3.01 0V11.957zM57.776 24.417h-2.93c-.076-.29-.1-11.927-.026-12.454h2.94c.083.258.105 11.989.016 12.454M57.848 7.502v2.642c-.284.082-2.444.108-3.056.041-.073-.265-.096-2.069-.034-2.653.269-.073 2.442-.098 3.09-.03M95.099 10.188h3.09V7.495H95.1zM122.888 24.28v-1.915h2.055v1.915h-2.055zm2.923-3.71c0-1.283.313-2.265.94-2.946.626-.681 1.522-1.022 2.69-1.022.751 0 1.49.143 2.216.428v1.54a5.037 5.037 0 0 0-1.908-.368c-.707 0-1.231.162-1.575.485-.343.323-.514.95-.514 1.882 0 .922.171 1.547.514 1.875.344.328.868.492 1.575.492.636 0 1.272-.127 1.908-.383v1.54a6.012 6.012 0 0 1-2.216.429c-1.168 0-2.064-.34-2.69-1.022-.627-.681-.94-1.658-.94-2.93zm6.942-.008c0-1.275.315-2.254.945-2.936.63-.683 1.533-1.024 2.71-1.024 1.176 0 2.079.341 2.708 1.024.63.682.945 1.661.945 2.936s-.315 2.253-.945 2.936c-.63.683-1.532 1.024-2.709 1.024-1.176 0-2.08-.341-2.709-1.024-.63-.683-.945-1.661-.945-2.936zm1.827.004c0 .988.15 1.654.45 1.999.3.344.76.517 1.381.517.62 0 1.08-.173 1.377-.517.297-.345.446-1.011.446-2 0-.987-.149-1.655-.446-2.002-.297-.347-.756-.521-1.377-.521-.62 0-1.08.174-1.38.521-.3.347-.45 1.015-.45 2.003zm6.577 3.956v-7.05c1.154-.58 2.288-.87 3.402-.87h.03c.845 0 1.549.19 2.113.572.966-.381 1.902-.572 2.807-.572 1.052 0 1.872.286 2.46.858.587.573.88 1.365.88 2.377v4.685h-1.868v-4.815c0-.498-.126-.875-.378-1.129-.251-.254-.72-.381-1.407-.381-.539 0-1.07.06-1.594.183.219.249.328.735.328 1.457v4.685h-1.853v-4.86c0-.479-.124-.837-.37-1.076-.247-.24-.708-.359-1.385-.359-.447 0-.88.04-1.296.122v6.173h-1.869z"/></g></g></svg>