<svg xmlns="http://www.w3.org/2000/svg" xmlns:xlink="http://www.w3.org/1999/xlink" viewBox="283 343.514 163.716 48.504">
  <defs>
    <style>
      .cls-1 {
        fill: #fff;
      }

      .cls-2 {
        fill: #a7a6a6;
      }

      .cls-3 {
        fill: #5bc9f4;
      }

      .cls-4 {
        fill: url(#linear-gradient);
      }

      .cls-5 {
        fill: url(#linear-gradient-2);
      }

      .cls-6 {
        fill: url(#linear-gradient-3);
      }
    </style>
    <linearGradient id="linear-gradient" x1="0.808" y1="0.498" x2="-1.57" y2="0.498" gradientUnits="objectBoundingBox">
      <stop offset="0" stop-color="#fee000"/>
      <stop offset="0.194" stop-color="#fccf0b"/>
      <stop offset="0.547" stop-color="#fab318"/>
      <stop offset="0.828" stop-color="#f9a21b"/>
      <stop offset="1" stop-color="#f99b1c"/>
    </linearGradient>
    <linearGradient id="linear-gradient-2" x1="0.863" y1="0.178" x2="-0.503" y2="1.952" gradientUnits="objectBoundingBox">
      <stop offset="0" stop-color="#ef4547"/>
      <stop offset="1" stop-color="#c6186d"/>
    </linearGradient>
    <linearGradient id="linear-gradient-3" x1="-0.509" y1="-0.955" x2="0.606" y2="0.488" gradientUnits="objectBoundingBox">
      <stop offset="0" stop-color="#279e6f"/>
      <stop offset="0.317" stop-color="#4dab6d"/>
      <stop offset="0.74" stop-color="#6aba6a"/>
      <stop offset="1" stop-color="#74c169"/>
    </linearGradient>
  </defs>
  <g id="Group_8" data-name="Group 8" transform="translate(283 343.514)">
    <g id="Group_1" data-name="Group 1">
      <path id="Path_1" data-name="Path 1" class="cls-1" d="M157.648,48.5H6.068A6.078,6.078,0,0,1,0,42.436V6.068A6.078,6.078,0,0,1,6.068,0h151.58a6.078,6.078,0,0,1,6.068,6.068V42.436A6.078,6.078,0,0,1,157.648,48.5Z"/>
    </g>
    <g id="Group_3" data-name="Group 3">
      <g id="Group_2" data-name="Group 2">
        <path id="Path_2" data-name="Path 2" class="cls-2" d="M157.648.991a5.074,5.074,0,0,1,5.077,5.077V42.436a5.074,5.074,0,0,1-5.077,5.077H6.068A5.074,5.074,0,0,1,.991,42.436V6.068A5.074,5.074,0,0,1,6.068.991h151.58m0-.991H6.068A6.078,6.078,0,0,0,0,6.068V42.436A6.078,6.078,0,0,0,6.068,48.5h151.58a6.078,6.078,0,0,0,6.068-6.068V6.068A6.078,6.078,0,0,0,157.648,0Z"/>
      </g>
    </g>
    <g id="Group_4" data-name="Group 4" transform="translate(50.114 8.339)">
      <path id="Path_3" data-name="Path 3" class="cls-2" d="M128.789,24.287a3.238,3.238,0,0,1-.908,2.436A3.606,3.606,0,0,1,125.2,27.8a3.811,3.811,0,0,1-2.683-1.073,3.887,3.887,0,0,1,0-5.449A3.578,3.578,0,0,1,125.2,20.2a3.538,3.538,0,0,1,1.486.289,2.962,2.962,0,0,1,1.156.826l-.619.66a2.479,2.479,0,0,0-1.981-.867,2.822,2.822,0,0,0-2.807,2.931,2.822,2.822,0,0,0,2.807,2.931,2.738,2.738,0,0,0,2.023-.826,2.346,2.346,0,0,0,.619-1.486h-2.642v-.867h3.509A1.85,1.85,0,0,1,128.789,24.287Z" transform="translate(-121.4 -20.2)"/>
      <path id="Path_4" data-name="Path 4" class="cls-2" d="M146.752,21.467h-3.3v2.312h2.972v.867h-2.972v2.312h3.3v.908H142.5V20.6h4.252Z" transform="translate(-133.79 -20.435)"/>
      <path id="Path_5" data-name="Path 5" class="cls-2" d="M158.172,27.807h-.949v-6.4H155.2V20.5h4.995v.908h-2.023v6.4Z" transform="translate(-141.247 -20.376)"/>
      <path id="Path_6" data-name="Path 6" class="cls-2" d="M176.1,27.865V20.6h.949v7.265Z" transform="translate(-153.52 -20.435)"/>
      <path id="Path_7" data-name="Path 7" class="cls-2" d="M184.172,27.807h-.949v-6.4H181.2V20.5h4.995v.908h-2.023v6.4Z" transform="translate(-156.515 -20.376)"/>
      <path id="Path_8" data-name="Path 8" class="cls-2" d="M207.04,26.681a3.55,3.55,0,0,1-2.683,1.115,3.614,3.614,0,0,1-2.683-1.115A3.811,3.811,0,0,1,200.6,24a3.74,3.74,0,0,1,1.073-2.683,3.55,3.55,0,0,1,2.683-1.115,3.614,3.614,0,0,1,2.683,1.115A3.811,3.811,0,0,1,208.113,24,3.578,3.578,0,0,1,207.04,26.681Zm-4.623-.619a2.791,2.791,0,0,0,3.963,0,2.861,2.861,0,0,0,.826-2.105,2.929,2.929,0,0,0-.826-2.105,2.791,2.791,0,0,0-3.963,0,3.1,3.1,0,0,0,0,4.211Z" transform="translate(-167.906 -20.2)"/>
      <path id="Path_9" data-name="Path 9" class="cls-2" d="M222,27.865V20.6h1.156l3.55,5.655h.041l-.041-1.4V20.6h.949v7.265h-.991l-3.715-5.944h-.041l.041,1.4v4.541Z" transform="translate(-180.472 -20.435)"/>
    </g>
    <path id="Path_10" data-name="Path 10" class="cls-2" d="M153.459,55.855a5.16,5.16,0,1,0,5.16,5.16A5.084,5.084,0,0,0,153.459,55.855Zm0,8.3a3.145,3.145,0,1,1,2.931-3.137A3.045,3.045,0,0,1,153.459,64.153Zm-11.311-8.3a5.16,5.16,0,1,0,5.16,5.16A5.084,5.084,0,0,0,142.148,55.855Zm0,8.3a3.145,3.145,0,1,1,2.931-3.137A2.993,2.993,0,0,1,142.148,64.153Zm-13.416-6.729v2.188h5.243a4.652,4.652,0,0,1-1.2,2.766,5.375,5.375,0,0,1-4.045,1.61A5.82,5.82,0,1,1,132.7,53.915l1.527-1.527a7.705,7.705,0,0,0-5.49-2.188,8.009,8.009,0,1,0,0,16.017,7.331,7.331,0,0,0,5.573-2.229,7.221,7.221,0,0,0,1.9-5.119,6.667,6.667,0,0,0-.124-1.362h-7.348Zm54.944,1.734a4.78,4.78,0,0,0-4.417-3.3,4.925,4.925,0,0,0-4.871,5.16,5.05,5.05,0,0,0,5.119,5.16A5.184,5.184,0,0,0,183.8,63.9l-1.775-1.156a2.965,2.965,0,0,1-2.559,1.445,2.664,2.664,0,0,1-2.518-1.569l6.894-2.848Zm-7.059,1.692a2.84,2.84,0,0,1,2.683-3.013,1.948,1.948,0,0,1,1.9,1.115ZM171,65.845h2.27V50.7H171Zm-3.715-8.834h-.083a3.517,3.517,0,0,0-2.724-1.156,5.151,5.151,0,0,0-4.954,5.16,5.086,5.086,0,0,0,4.954,5.119,3.584,3.584,0,0,0,2.724-1.156h.083v.743c0,1.981-1.073,3.013-2.766,3.013a2.866,2.866,0,0,1-2.6-1.816l-1.981.826a4.937,4.937,0,0,0,4.582,3.055c2.642,0,4.912-1.569,4.912-5.366V56.186h-2.147Zm-2.559,7.141a3.126,3.126,0,0,1,0-6.233,3.139,3.139,0,0,1,0,6.233ZM194.285,50.7h-5.408v15.15h2.27V60.107h3.179a4.713,4.713,0,1,0-.041-9.412ZM194.326,58h-3.22V52.8h3.22a2.6,2.6,0,1,1,0,5.2Zm13.994-2.188a4.223,4.223,0,0,0-4.045,2.312l2.023.826a2.161,2.161,0,0,1,2.064-1.115,2.214,2.214,0,0,1,2.394,1.94v.165a4.836,4.836,0,0,0-2.353-.578c-2.147,0-4.376,1.2-4.376,3.426a3.51,3.51,0,0,0,3.757,3.344,3.236,3.236,0,0,0,2.89-1.486h.083V65.8h2.188V60.025C212.943,57.341,210.921,55.814,208.32,55.814Zm-.289,8.339c-.743,0-1.775-.372-1.775-1.28,0-1.156,1.28-1.61,2.394-1.61a4.111,4.111,0,0,1,2.064.5A2.713,2.713,0,0,1,208.031,64.153Zm12.838-8.008-2.6,6.564h-.083L215.5,56.144h-2.436l4.045,9.205L214.8,70.468h2.353l6.233-14.283h-2.518Zm-20.351,9.7h2.27V50.7h-2.27Z" transform="translate(-70.816 -29.477)"/>
    <g id="Group_7" data-name="Group 7" transform="translate(12.095 8.673)">
      <g id="Group_6" data-name="Group 6">
        <g id="Group_5" data-name="Group 5">
          <path id="Path_11" data-name="Path 11" class="cls-3" d="M29.878,22.083a2.329,2.329,0,0,0-.578,1.692V50.566a2.329,2.329,0,0,0,.578,1.692l.083.083L44.986,37.315v-.33L29.96,22Z" transform="translate(-29.3 -21.591)"/>
          <path id="Path_12" data-name="Path 12" class="cls-4" d="M72.236,56.62,67.2,51.625v-.33L72.195,46.3l.124.083,5.944,3.3c1.692.949,1.692,2.518,0,3.509l-5.944,3.385Z" transform="translate(-51.555 -35.86)"/>
          <path id="Path_13" data-name="Path 13" class="cls-5" d="M50.886,63.919,45.767,58.8,30.7,73.867a2.006,2.006,0,0,0,2.518.083L50.886,63.919" transform="translate(-30.122 -43.2)"/>
          <path id="Path_14" data-name="Path 14" class="cls-6" d="M50.886,31.491,33.218,21.418A1.953,1.953,0,0,0,30.7,21.5L45.808,36.609Z" transform="translate(-30.122 -21.01)"/>
        </g>
      </g>
    </g>
  </g>
</svg>
